<?xml version="1.0" encoding="UTF-8" standalone="no"?>
<svg
   xmlns:dc="http://purl.org/dc/elements/1.1/"
   xmlns:cc="http://creativecommons.org/ns#"
   xmlns:rdf="http://www.w3.org/1999/02/22-rdf-syntax-ns#"
   xmlns:svg="http://www.w3.org/2000/svg"
   xmlns="http://www.w3.org/2000/svg"
   xmlns:sodipodi="http://sodipodi.sourceforge.net/DTD/sodipodi-0.dtd"
   xmlns:inkscape="http://www.inkscape.org/namespaces/inkscape"
   inkscape:version="1.0 (4035a4fb49, 2020-05-01)"
   sodipodi:docname="umrah.svg"
   version="1.1"
   viewBox="0 0 22.398439 21.931523"
   height="21.931522"
   width="22.398439"
   id="svg">
  <metadata
     id="metadata10">
    <rdf:RDF>
      <cc:Work
         rdf:about="">
        <dc:format>image/svg+xml</dc:format>
        <dc:type
           rdf:resource="http://purl.org/dc/dcmitype/StillImage" />
        <dc:title></dc:title>
      </cc:Work>
    </rdf:RDF>
  </metadata>
  <defs
     id="defs8" />
  <sodipodi:namedview
     inkscape:current-layer="svg"
     inkscape:window-maximized="1"
     inkscape:window-y="0"
     inkscape:window-x="0"
     inkscape:cy="-46.075809"
     inkscape:cx="-73.708152"
     inkscape:zoom="1.4316973"
     fit-margin-bottom="0"
     fit-margin-right="0"
     fit-margin-left="0"
     fit-margin-top="0"
     showgrid="false"
     id="namedview6"
     inkscape:window-height="731"
     inkscape:window-width="1366"
     inkscape:pageshadow="2"
     inkscape:pageopacity="0"
     guidetolerance="10"
     gridtolerance="10"
     objecttolerance="10"
     borderopacity="1"
     bordercolor="#666666"
     pagecolor="#ffffff" />
  <g
     transform="matrix(0.06354327,0,0,0.06354327,-1.1838747,-0.57048557)"
     id="svgg">
    <path
       fill="#ed8936"
       stroke="none"
       d="m 112.091,9.286 c -0.455,0.168 -0.99,0.737 -1.191,1.264 -0.467,1.23 -0.458,1.382 0.063,1.06 0.235,-0.145 0.334,-0.114 0.22,0.07 -0.114,0.184 -3.009,0.314 -6.434,0.288 -3.425,-0.025 -6.394,0.055 -6.597,0.179 -0.204,0.125 -0.522,0.229 -0.709,0.232 -0.186,0.003 -0.399,0.505 -0.473,1.115 -0.224,1.837 -0.318,1.914 -2.203,1.802 -2.243,-0.134 -4.615,0.219 -4.35,0.647 0.11,0.178 0.006,0.323 -0.231,0.323 -0.248,0 -0.332,0.258 -0.199,0.607 0.467,1.217 -0.126,1.979 -1.565,2.009 -2.379,0.049 -3.882,0.813 -4.615,2.346 -0.58,1.213 -0.789,1.363 -1.611,1.156 -0.669,-0.168 -1.102,-0.043 -1.486,0.427 -0.299,0.365 -0.422,0.43 -0.274,0.145 0.185,-0.355 0.126,-0.43 -0.187,-0.237 -0.251,0.155 -0.367,0.64 -0.257,1.077 0.294,1.172 -0.29,1.831 -1.59,1.794 -0.633,-0.018 -1.056,0.121 -0.94,0.308 0.116,0.188 -0.048,0.242 -0.363,0.121 -0.467,-0.179 -0.574,0.095 -0.574,1.471 0,1.298 -0.121,1.646 -0.517,1.494 -0.285,-0.11 -0.617,-0.037 -0.74,0.161 -0.122,0.198 -0.555,0.273 -0.962,0.167 -0.406,-0.106 -0.76,-0.049 -0.786,0.127 -0.026,0.177 -0.112,0.737 -0.191,1.245 -0.08,0.508 -0.197,1.684 -0.26,2.613 -0.136,2.003 -0.487,2.689 -1.232,2.403 -1.121,-0.43 -2.234,0.166 -2.245,1.204 -0.023,2.094 -0.081,2.199 -1.349,2.436 -1.376,0.259 -1.815,0.921 -1.484,2.239 0.118,0.47 0.034,0.965 -0.186,1.101 -0.235,0.146 -0.399,1.53 -0.399,3.368 0,2.704 -0.086,3.128 -0.647,3.175 -0.356,0.03 -0.897,0.089 -1.202,0.13 -0.305,0.042 -0.758,0.1 -1.006,0.13 -0.536,0.065 -0.623,20.791 -0.095,22.631 0.201,0.704 0.184,1.017 -0.049,0.874 -0.235,-0.146 -0.324,2.757 -0.253,8.218 l 0.109,8.443 1.572,0.113 1.571,0.114 v 3.306 c 0,1.818 0.151,3.306 0.335,3.306 0.184,0 0.252,0.316 0.151,0.702 -0.281,1.074 0.495,2.169 1.729,2.44 1.067,0.234 1.347,1.015 1.08,3.009 -0.06,0.45 0.963,0.862 2.158,0.867 0.883,0.005 1.209,0.177 1.232,0.653 0.017,0.356 0.072,1.015 0.122,1.466 0.122,1.09 -0.128,1.405 -1.447,1.83 -0.774,0.249 -1.213,0.703 -1.454,1.502 -0.33,1.098 -0.836,1.371 -3.058,1.647 -0.245,0.03 -0.36,0.194 -0.256,0.363 0.105,0.17 0.035,0.308 -0.155,0.308 -0.189,0 -0.345,0.423 -0.345,0.94 0,1.208 -0.114,1.302 -1.851,1.535 -1.405,0.189 -1.452,0.242 -1.509,1.694 -0.071,1.818 0.056,1.688 -1.758,1.795 -1.466,0.086 -1.494,0.114 -1.58,1.58 -0.107,1.806 0.063,1.64 -1.793,1.75 -1.642,0.097 -2.257,0.995 -1.758,2.568 0.198,0.621 -1.524,1.111 -2.162,0.615 -0.307,-0.239 -1.353,1.227 -1.301,1.823 0.144,1.655 -0.035,1.987 -0.951,1.757 -1.197,-0.301 -2.42,0.918 -2.322,2.315 0.062,0.898 -0.077,1.054 -1.037,1.162 -1.537,0.173 -2.126,0.75 -1.857,1.819 0.143,0.57 0.085,0.805 -0.161,0.653 -0.251,-0.155 -0.385,0.545 -0.385,2.002 v 2.24 h -1.664 -1.663 v 1.624 c 0,1.719 -0.444,2.178 -1.771,1.831 -0.753,-0.197 -1.342,0.369 -1.409,1.351 -0.021,0.305 -0.062,1.416 -0.093,2.469 -0.064,2.243 -0.764,3.191 -2.109,2.853 -1.131,-0.284 -1.631,0.857 -1.595,3.638 0.044,3.366 0.103,3.24 -1.526,3.24 -0.813,0 -1.501,0.124 -1.528,0.277 -0.027,0.152 -0.091,1.587 -0.143,3.187 -0.094,2.908 -0.494,3.774 -1.564,3.383 -0.64,-0.235 -1.611,0.182 -1.362,0.585 0.112,0.182 0.053,0.331 -0.133,0.331 -0.186,0 -0.345,1.872 -0.355,4.159 -0.021,5.401 0.038,5.083 -0.941,5.083 -0.467,0 -1.074,0.208 -1.348,0.462 -0.405,0.376 -0.44,0.359 -0.188,-0.092 0.268,-0.48 0.225,-0.485 -0.321,-0.042 -0.348,0.282 -0.603,0.864 -0.568,1.294 0.035,0.429 0.037,4.815 0.006,9.746 l -0.058,8.965 H 24.26 c -2.109,0 -2.043,-0.723 -2.061,22.568 -0.008,11.885 -0.141,21.653 -0.294,21.707 -3.23,1.144 -3.239,1.233 -3.189,32.25 0.036,22.126 -0.033,21.442 2.167,21.442 h 1.199 l 0.19,2.659 c 0.201,2.811 0.952,3.995 2.533,3.995 0.441,0 0.887,0.464 1.228,1.278 0.634,1.518 2.451,2.419 4.881,2.419 1.43,0 1.619,0.097 1.624,0.832 0.015,2.18 1.377,2.492 10.766,2.466 l 7.26,-0.02 0.936,0.936 c 0.515,0.515 0.993,1.233 1.061,1.596 0.093,0.486 0.537,0.689 1.694,0.773 1.154,0.084 1.582,0.279 1.622,0.739 0.03,0.345 0.089,0.876 0.13,1.181 0.042,0.305 0.1,0.762 0.131,1.016 0.033,0.281 0.618,0.462 1.493,0.462 1.679,0 1.806,0.273 1.926,4.131 0.082,2.623 0.293,2.875 2.418,2.888 0.768,0.005 0.798,0.179 0.955,5.643 0.185,6.402 0.294,6.817 1.897,7.232 l 1.162,0.301 0.098,10.062 0.099,10.062 0.942,0.358 c 0.518,0.197 1.413,0.358 1.987,0.358 0.803,0 1.098,0.212 1.274,0.914 0.6,2.389 7.33,2.748 9.633,0.514 l 1.386,-1.344 4.86,-0.152 c 5.517,-0.172 6.383,-0.471 6.731,-2.325 l 0.239,-1.276 3.196,-0.106 3.196,-0.106 0.349,-1.571 0.348,-1.572 2.609,-0.005 c 3.107,-0.007 3.391,-0.151 3.716,-1.886 l 0.251,-1.335 2.424,-0.226 c 2.655,-0.248 3.797,-0.944 3.797,-2.315 0,-0.748 0.205,-0.86 1.756,-0.959 l 1.756,-0.113 0.111,-1.518 0.111,-1.519 2.808,-0.237 c 3.251,-0.275 3.809,-0.611 3.809,-2.296 0,-1.203 0.036,-1.231 1.756,-1.341 l 1.756,-0.113 0.114,-1.571 0.113,-1.571 h 2.725 c 3.08,0 3.887,-0.466 3.887,-2.245 0,-1.036 0.071,-1.082 1.664,-1.082 h 1.663 v -1.664 -1.663 l 1.572,-0.009 c 3.52,-0.02 5.065,-0.777 5.077,-2.487 0.005,-0.7 0.207,-0.832 1.273,-0.832 1.546,0 2.43,-0.808 2.43,-2.223 0,-0.984 0.114,-1.07 1.568,-1.175 1.228,-0.089 1.596,-0.274 1.699,-0.853 0.304,-1.707 1.901,-2.773 4.156,-2.773 2.282,0 2.558,-0.24 2.558,-2.228 0,-1 0.096,-1.064 1.756,-1.171 l 1.756,-0.113 0.111,-1.519 0.111,-1.52 2.477,-0.227 c 2.612,-0.24 3.771,-1.009 3.771,-2.505 0,-0.533 0.268,-0.698 1.133,-0.698 1.812,0 2.564,-0.594 2.564,-2.025 0,-1.218 0.052,-1.264 1.571,-1.373 1.554,-0.113 1.572,-0.13 1.682,-1.636 l 0.111,-1.522 2.836,-0.257 c 3.295,-0.298 3.781,-0.593 3.781,-2.29 0,-1.229 0.026,-1.248 1.624,-1.248 1.756,0 2.073,-0.341 2.073,-2.227 0,-0.98 0.115,-1.066 1.571,-1.172 1.56,-0.113 1.572,-0.124 1.684,-1.664 0.112,-1.537 0.127,-1.552 1.663,-1.664 1.537,-0.111 1.552,-0.127 1.664,-1.663 0.112,-1.537 0.127,-1.552 1.664,-1.664 1.536,-0.112 1.552,-0.127 1.663,-1.664 0.112,-1.536 0.128,-1.552 1.664,-1.663 l 1.551,-0.113 0.11,-1.695 c 0.105,-1.614 0.175,-1.711 1.468,-2.033 1.72,-0.428 2.234,-1.904 2.275,-6.531 l 0.028,-3.234 h 1.276 c 0.825,0 1.409,-0.229 1.652,-0.647 0.323,-0.554 0.689,4.513 0.43,5.954 -0.124,0.695 0.867,1.347 2.048,1.347 h 1.249 v 3.129 c 0,3.352 0.309,3.895 2.22,3.895 0.435,0 1.04,0.249 1.345,0.554 0.305,0.305 0.394,0.555 0.199,0.555 -0.2,0 -0.321,1.068 -0.278,2.433 0.085,2.634 0.405,3.097 2.151,3.107 0.699,0.004 1.034,0.208 1.072,0.652 0.03,0.356 0.089,0.897 0.13,1.202 0.041,0.305 0.1,0.762 0.13,1.016 0.033,0.281 0.618,0.462 1.492,0.462 1.419,0 1.439,0.021 1.686,1.664 0.169,1.13 0.429,1.664 0.81,1.664 0.731,0 2.602,1.88 2.777,2.792 0.076,0.391 0.432,0.768 0.793,0.837 0.917,0.177 2.361,1.588 2.529,2.471 0.11,0.577 0.484,0.764 1.709,0.853 0.862,0.062 1.583,0.228 1.602,0.369 0.019,0.141 0.061,0.838 0.093,1.55 0.055,1.231 0.129,1.3 1.531,1.414 1.591,0.129 2.024,0.519 2.033,1.83 0.007,1.108 1.251,1.562 4.281,1.562 2.335,0 2.38,0.019 2.435,1.017 0.031,0.559 0.073,1.266 0.092,1.571 0.029,0.439 0.71,0.577 3.271,0.661 2.964,0.098 3.235,0.17 3.235,0.854 0,0.452 0.162,0.647 0.409,0.494 0.274,-0.17 0.329,0 0.167,0.51 -0.384,1.212 0.806,1.547 5.5,1.547 h 4.275 v 1.131 c 0,0.651 0.155,1.035 0.366,0.905 0.202,-0.125 0.275,0.009 0.163,0.3 -0.335,0.874 0.851,1.081 7.292,1.272 l 6.157,0.182 0.81,1.096 c 0.555,0.75 1.034,1.039 1.515,0.913 0.387,-0.102 0.61,-0.033 0.496,0.151 -0.518,0.839 2.324,1.074 12.939,1.074 h 11.205 l 0.215,1.075 c 0.395,1.974 1.257,2.068 18.952,2.068 17.256,0 16.868,0.046 17.286,-2.042 l 0.22,-1.101 h 6.267 c 6.913,0 7.43,-0.156 7.43,-2.244 v -1.083 h 2.612 c 3.405,0 4.042,-0.352 4.042,-2.231 v -1.466 h 1.664 1.663 v -1.663 -1.664 h 1.488 c 1.823,0 2.209,-0.746 2.209,-4.275 v -2.379 h 1.281 c 1.808,0 2.046,-0.698 2.046,-5.999 v -4.569 l 1.195,-0.354 c 1.865,-0.552 2.071,-1.842 2.104,-13.163 l 0.028,-9.853 1.365,-0.323 c 2.037,-0.481 1.987,0.652 1.878,-42.347 -0.109,-43.025 -0.011,-41.138 -2.154,-41.566 l -1.089,-0.218 v -7.926 c 0,-7.662 -0.212,-9.357 -1.172,-9.357 -1.625,0 -2.155,-1.739 -2.155,-7.067 0,-5.057 -0.342,-6.9 -1.185,-6.38 -0.251,0.156 -0.303,0.083 -0.134,-0.19 0.351,-0.568 -0.744,-2.259 -1.462,-2.259 -0.452,0 -0.546,-0.789 -0.546,-4.597 0,-5.701 -0.195,-6.306 -2.073,-6.433 -1.84,-0.124 -1.685,0.521 -1.642,-6.834 0.042,-7.207 -0.31,-8.71 -2.228,-9.505 l -1.02,-0.422 -0.123,-6.197 c -0.134,-6.76 -0.362,-7.548 -2.124,-7.343 l -0.956,0.111 -0.185,-6.47 c -0.206,-7.202 -0.259,-7.394 -2.055,-7.394 h -1.272 l -0.026,-6.007 c -0.027,-6.164 -0.219,-7.454 -1.12,-7.52 -0.285,-0.021 -0.892,-0.064 -1.35,-0.095 -0.815,-0.055 -0.832,-0.149 -0.832,-4.647 0,-4.648 -0.178,-5.922 -0.778,-5.551 -0.182,0.112 -0.331,-0.072 -0.331,-0.409 0,-0.337 -0.471,-1.054 -1.048,-1.593 -0.935,-0.873 -1.077,-1.318 -1.309,-4.102 -0.297,-3.57 -0.598,-4.113 -2.213,-3.99 -1.124,0.086 -1.163,0.037 -1.277,-1.553 -0.125,-1.751 -1.869,-4.459 -2.871,-4.459 -0.369,0 -0.525,-0.465 -0.529,-1.571 -0.005,-1.256 -0.708,-3.533 -0.728,-2.357 -0.004,0.177 -0.248,0.122 -0.543,-0.123 -0.295,-0.245 -0.877,-0.338 -1.294,-0.206 -0.664,0.211 -0.757,0.083 -0.757,-1.048 0,-2.081 -0.29,-2.458 -1.888,-2.458 -1.376,0 -1.439,-0.053 -1.445,-1.201 -0.005,-1.195 -0.417,-2.218 -0.867,-2.158 -1.934,0.259 -2.352,0.019 -2.681,-1.539 -0.204,-0.968 -0.543,-1.584 -0.884,-1.607 -0.304,-0.02 -1.094,-0.062 -1.754,-0.093 -0.884,-0.041 -1.202,-0.23 -1.202,-0.713 0,-1.558 -1.61,-2.645 -4.251,-2.872 -0.407,-0.035 -1.031,-0.087 -1.387,-0.116 -0.445,-0.036 -0.648,-0.369 -0.652,-1.069 -0.01,-1.845 -0.45,-2.067 -4.23,-2.137 -2.541,-0.046 -2.575,-0.06 -2.864,-1.173 -0.502,-1.94 -0.951,-2.077 -7.145,-2.178 -6.209,-0.102 -6.458,-0.156 -6.458,-1.42 0,-1.103 -0.864,-1.814 -1.831,-1.508 -0.447,0.142 -0.757,0.075 -0.757,-0.163 0,-0.282 -2.898,-0.394 -9.612,-0.373 -5.514,0.017 -9.611,0.173 -9.611,0.367 0,0.185 -0.279,0.23 -0.619,0.099 -0.469,-0.18 -0.561,-0.087 -0.381,0.381 0.13,0.341 0.076,0.619 -0.121,0.619 -0.197,0 -0.358,0.416 -0.358,0.924 0,1.067 0.513,0.992 -6.932,1.01 -2.897,0.007 -5.268,0.157 -5.268,0.333 0,0.177 -0.208,0.279 -0.462,0.228 -0.294,-0.058 -0.501,0.444 -0.571,1.387 l -0.109,1.479 -3.015,-0.045 c -3.286,-0.049 -3.723,0.162 -3.911,1.89 -0.067,0.609 -0.15,1.132 -0.185,1.164 -0.114,0.102 -4.849,0.591 -5.518,0.569 -0.355,-0.011 -0.671,0.177 -0.701,0.419 -0.03,0.241 -0.089,0.688 -0.13,0.993 -0.042,0.305 -0.1,0.846 -0.13,1.202 -0.044,0.512 -0.402,0.647 -1.719,0.647 h -1.663 v 1.663 1.664 h -1.457 c -1.444,0 -2.02,0.407 -2.093,1.479 -0.123,1.812 -0.149,1.848 -1.349,1.854 -1.57,0.007 -1.988,0.331 -2.023,1.565 -0.016,0.559 -0.045,1.225 -0.065,1.479 -0.023,0.291 -0.617,0.462 -1.608,0.462 -1.539,0 -1.573,0.027 -1.629,1.294 -0.032,0.712 -0.074,1.398 -0.093,1.525 -0.03,0.203 -1.776,0.723 -2.807,0.837 -0.204,0.023 -0.425,1.454 -0.492,3.182 -0.143,3.692 0.083,3.268 -1.806,3.38 -0.845,0.049 -1.528,0.183 -1.516,0.297 0.011,0.113 0,1.569 -0.024,3.235 l -0.044,3.028 -1.538,0.114 c -1.027,0.076 -1.562,0.298 -1.611,0.668 -0.414,3.123 -0.488,5.334 -0.237,7.099 0.197,1.38 0.173,2.029 -0.068,1.88 -0.22,-0.136 -0.271,0.027 -0.126,0.403 0.207,0.541 0.068,0.598 -0.978,0.402 -2.427,-0.455 -2.272,-3.246 -2.368,42.639 -0.047,22.874 -0.158,41.661 -0.246,41.749 -0.088,0.088 -0.715,0.188 -1.392,0.221 -0.678,0.034 -1.205,0.228 -1.172,0.432 0.034,0.203 -0.07,0.536 -0.23,0.739 -0.161,0.203 -0.298,2.116 -0.305,4.251 -0.007,2.135 -0.028,4.09 -0.047,4.344 -0.018,0.255 -0.51,0.462 -1.097,0.462 -1.262,0 -2.006,0.755 -1.652,1.678 0.174,0.454 0.118,0.578 -0.179,0.394 -0.323,-0.2 -0.432,1.229 -0.432,5.661 v 5.927 l -1.109,-0.222 c -0.615,-0.123 -1.109,-0.064 -1.109,0.133 0,0.195 -0.25,0.354 -0.555,0.354 -0.476,0 -0.558,-1.207 -0.582,-8.534 -0.029,-9.039 -0.257,-11.86 -0.958,-11.86 -0.237,0 -0.556,-0.125 -0.709,-0.278 -0.152,-0.152 -0.582,-0.277 -0.955,-0.277 -0.62,0 -0.678,-0.382 -0.678,-4.486 0,-6.188 -0.606,-8.202 -2.599,-8.64 l -1.07,-0.235 -0.106,-3.394 -0.106,-3.393 -1.557,-0.113 -1.557,-0.113 -0.107,-3.214 c -0.074,-2.237 -0.247,-3.228 -0.569,-3.26 -0.254,-0.026 -0.937,-0.067 -1.517,-0.093 -1.038,-0.045 -1.059,-0.091 -1.279,-2.726 -0.236,-2.829 -0.96,-3.974 -2.513,-3.974 -0.548,0 -0.698,-0.271 -0.698,-1.268 0,-1.675 -0.875,-2.539 -2.264,-2.234 -0.975,0.214 -1.064,0.147 -1.068,-0.813 -0.011,-2.235 -0.341,-2.709 -1.887,-2.709 -1.313,0 -1.438,-0.087 -1.461,-1.017 -0.031,-1.192 -0.446,-2.377 -0.821,-2.338 -2.363,0.246 -2.85,0.034 -2.85,-1.245 0,-1.633 -0.35,-1.82 -3.693,-1.978 -3.265,-0.154 -2.901,0.065 -3.012,-1.816 -0.093,-1.57 -1.394,-2.357 -2.95,-1.784 -0.615,0.227 -1.114,-0.105 -1.651,-1.098 -0.22,-0.406 -0.76,-0.903 -1.201,-1.104 -1.394,-0.635 -0.953,-1.299 0.862,-1.299 h 1.663 v -1.642 -1.642 l 1.572,-0.114 c 1.543,-0.112 1.573,-0.14 1.691,-1.588 0.132,-1.63 0.513,-2.024 1.966,-2.032 1.235,-0.007 1.426,-0.527 1.426,-3.896 V 96.53 l 1.571,-0.113 1.571,-0.114 0.076,-4.066 c 0.041,-2.237 0.083,-4.441 0.092,-4.899 0.014,-0.687 0.226,-0.833 1.218,-0.837 2.44,-0.012 2.311,0.937 2.311,-16.956 0,-17.567 0.09,-16.822 -2.045,-16.847 -1.04,-0.013 -1.47,-0.179 -1.482,-0.572 -0.009,-0.305 -0.051,-2.551 -0.093,-4.991 -0.063,-3.637 -0.177,-4.445 -0.632,-4.486 -0.305,-0.027 -1.012,-0.069 -1.571,-0.092 -1.014,-0.043 -1.016,-0.051 -1.016,-2.786 0,-3.625 -0.137,-3.911 -1.868,-3.911 h -1.419 l -0.113,-1.756 -0.112,-1.756 h -1.572 -1.571 v -1.547 c 0,-1.28 -0.143,-1.591 -0.831,-1.806 -1.085,-0.338 -2.371,-1.629 -2.549,-2.558 -0.077,-0.405 -0.471,-0.799 -0.874,-0.877 -0.883,-0.17 -2.292,-1.618 -2.466,-2.534 -0.096,-0.503 -0.544,-0.687 -1.878,-0.773 l -1.753,-0.112 v -1.644 -1.643 h -1.622 c -1.553,0 -1.633,-0.054 -1.859,-1.257 -0.32,-1.707 -0.734,-1.958 -3.694,-2.237 -1.908,-0.18 -2.631,-0.119 -2.859,0.24 -0.194,0.306 -0.308,0.001 -0.311,-0.834 -0.01,-2.224 -0.508,-2.538 -4.35,-2.748 -2.583,-0.14 -3.421,-0.073 -3.425,0.275 -0.005,0.363 -0.067,0.364 -0.294,0.007 -0.186,-0.293 -1.006,-0.416 -2.305,-0.345 -2.297,0.125 -3.68,-0.244 -3.68,-0.983 0,-1.701 -1.013,-1.882 -10.847,-1.938 -5.128,-0.029 -9.695,0.084 -10.149,0.252 m 15.456,17.054 c 0.013,1.936 1.514,2.473 6.956,2.487 l 3.449,0.008 -0.254,1.156 c -0.175,0.796 -0.128,1.077 0.151,0.905 0.245,-0.152 0.326,-0.044 0.204,0.273 -0.243,0.634 1.255,0.994 4.137,0.994 1.911,0 1.989,0.039 2.03,1.016 0.089,2.117 0.093,2.122 1.713,2.24 1.07,0.077 1.572,0.284 1.572,0.647 0,0.293 0.161,0.533 0.358,0.533 0.197,0 0.253,0.273 0.124,0.608 -0.283,0.739 0.787,1.61 1.978,1.61 0.91,0 1.619,0.976 1.32,1.816 -0.245,0.69 0.919,1.511 2.142,1.511 0.684,0 0.975,0.194 0.973,0.647 -0.011,2.432 0.086,2.608 1.569,2.859 1.37,0.231 1.453,0.323 1.687,1.881 0.183,1.22 0.41,1.637 0.893,1.637 1.722,0 2.602,1.827 2.671,5.551 0.074,3.967 0.288,4.431 2.042,4.431 h 1.248 v 10.311 c 0,10.881 -0.042,11.147 -1.668,10.523 -0.774,-0.297 -1.684,0.547 -1.608,1.49 0.293,3.598 -0.061,5.794 -0.992,6.148 -0.517,0.197 -1.152,0.861 -1.411,1.476 -0.258,0.615 -0.564,1.024 -0.678,0.909 -0.279,-0.278 -0.758,2.338 -0.503,2.75 0.169,0.273 -2.133,0.982 -2.782,0.856 -0.248,-0.048 -0.377,0.685 -0.429,2.442 -0.036,1.179 -0.087,1.221 -1.217,1.01 -1.218,-0.229 -2.315,0.496 -1.861,1.23 0.122,0.198 0.053,0.465 -0.153,0.592 -0.207,0.128 -0.376,0.567 -0.376,0.975 0,0.574 -0.168,0.689 -0.74,0.508 -0.879,-0.279 -2.218,0.083 -2.218,0.601 0,0.202 0.165,0.265 0.366,0.141 0.209,-0.13 0.271,0.018 0.146,0.345 -0.121,0.315 -0.368,0.48 -0.55,0.367 -0.182,-0.112 -0.331,0.222 -0.331,0.742 0,0.794 -0.178,0.953 -1.109,0.992 -2.271,0.095 -2.082,-0.103 -2.172,2.271 l -0.047,1.208 -2.772,-0.08 c -1.561,-0.046 -2.773,0.073 -2.773,0.27 0,0.194 -0.183,0.31 -0.407,0.259 -0.345,-0.078 -0.695,1.215 -0.798,2.952 -0.017,0.287 -0.177,0.332 -0.431,0.121 -1.697,-1.409 -11.724,0.202 -12.405,1.992 -0.351,0.924 -0.433,0.943 -4.064,0.943 h -3.706 v -1.064 c 0,-0.585 -0.235,-1.259 -0.523,-1.498 -0.763,-0.633 -7.945,-0.882 -8.665,-0.3 -0.451,0.366 -0.51,0.365 -0.288,-0.004 0.17,-0.283 0.073,-0.462 -0.253,-0.462 -0.292,0 -0.628,-0.49 -0.748,-1.089 -0.314,-1.569 -1.728,-2.105 -5.86,-2.22 -0.451,-0.013 -0.656,-0.403 -0.739,-1.404 -0.087,-1.051 -0.27,-1.374 -0.758,-1.336 -0.353,0.028 -0.56,-0.083 -0.459,-0.246 0.101,-0.164 -0.584,-0.297 -1.523,-0.297 -1.868,0 -3.844,-1.398 -3.844,-2.719 0,-0.548 -0.304,-0.67 -1.664,-0.67 h -1.663 v -1.409 c 0,-1.923 -1.262,-4.437 -2.364,-4.714 -0.718,-0.18 -0.908,-0.52 -1.063,-1.9 -0.215,-1.909 -0.751,-2.42 -2.211,-2.113 l -1.017,0.213 -0.037,-2.525 c -0.02,-1.388 -0.153,-2.94 -0.294,-3.449 -0.257,-0.918 -0.403,-0.984 -2.349,-1.066 L 79.482,83.179 V 70.773 c 0,-9.818 -0.096,-12.352 -0.462,-12.145 -0.369,0.208 -0.369,0.161 0,-0.237 0.254,-0.274 0.462,-0.954 0.462,-1.512 0,-0.927 0.134,-1.024 1.557,-1.128 1.821,-0.133 2.045,-0.587 2.103,-4.272 0.037,-2.264 0.058,-2.311 1.054,-2.316 1.682,-0.01 2.062,-0.502 2.235,-2.899 0.17,-2.344 0.944,-3.534 2.478,-3.809 0.578,-0.103 0.765,-0.472 0.852,-1.68 0.112,-1.533 0.128,-1.549 1.664,-1.66 l 1.551,-0.113 0.111,-1.717 0.111,-1.716 2.79,-0.141 c 3.001,-0.152 3.827,-0.668 3.827,-2.392 0,-0.73 0.215,-0.847 1.741,-0.946 1.374,-0.088 1.784,-0.268 1.941,-0.852 0.54,-1.999 1.421,-2.403 5.243,-2.403 3.877,0 4.754,-0.175 4.754,-0.95 0,-0.276 0.374,-0.906 0.831,-1.4 1.264,-1.365 13.213,-1.495 13.222,-0.145 m 159.002,16.636 c 0.023,0.254 0.01,0.771 -0.03,1.149 -0.043,0.406 0.089,0.588 0.323,0.443 0.235,-0.145 0.314,-0.032 0.194,0.279 -0.278,0.727 1.328,0.994 5.986,0.994 3.514,0 3.836,0.059 3.836,0.698 0,1.571 1.135,2.253 4.166,2.502 2.575,0.212 2.85,0.308 2.655,0.921 -0.318,1.003 0.172,2.254 0.791,2.017 0.286,-0.11 0.521,-0.039 0.521,0.158 0,0.197 1.164,0.358 2.588,0.358 2.204,0 2.593,0.096 2.624,0.647 0.148,2.627 0.057,2.489 1.719,2.609 1.316,0.096 1.58,0.246 1.626,0.925 0.03,0.445 0.072,1.06 0.093,1.365 0.073,1.077 0.652,1.478 2.133,1.478 1.415,0 1.484,0.051 1.263,0.932 -0.386,1.539 0.334,2.396 2.015,2.396 h 1.466 l 0.052,2.125 c 0.104,4.248 -0.016,3.941 1.704,4.323 1.67,0.37 1.887,1.003 1.609,4.69 -0.095,1.255 0.836,2.17 2.206,2.17 h 1.083 l -0.024,4.344 c -0.016,3.038 -0.125,4.089 -0.364,3.495 -0.187,-0.467 -0.551,-0.822 -0.808,-0.788 -2.035,0.266 -2.13,0.138 -2.153,-2.892 -0.043,-5.539 -0.585,-7.098 -2.474,-7.111 -0.712,-0.004 -0.832,-0.204 -0.837,-1.392 -0.005,-1.194 -0.687,-3.146 -0.743,-2.125 -0.011,0.203 -0.255,-0.172 -0.543,-0.835 -0.288,-0.662 -0.947,-1.365 -1.464,-1.562 -0.812,-0.308 -0.941,-0.582 -0.941,-1.985 0,-1.522 -0.579,-2.565 -1.348,-2.427 -1.518,0.273 -1.939,-0.056 -2.051,-1.602 -0.066,-0.916 -0.306,-1.59 -0.575,-1.617 -0.255,-0.025 -0.962,-0.067 -1.572,-0.092 -0.994,-0.042 -1.109,-0.171 -1.114,-1.248 -0.003,-0.661 -0.128,-1.368 -0.278,-1.571 -0.261,-0.356 -0.564,-0.424 -2.741,-0.619 -0.545,-0.049 -0.918,-0.207 -0.829,-0.351 0.832,-1.346 -1.476,-2.952 -4.46,-3.103 -1.716,-0.086 -1.858,-0.168 -2.066,-1.185 -0.315,-1.537 -0.63,-1.935 -1.561,-1.974 -5.757,-0.238 -34.27,-0.187 -34.27,0.062 0,0.182 -0.197,0.289 -0.437,0.238 -0.252,-0.053 -0.487,0.442 -0.555,1.171 -0.151,1.614 -0.005,1.525 -2.755,1.687 -1.294,0.076 -2.686,0.208 -3.093,0.293 -0.764,0.16 -0.8,0.248 -0.878,2.139 -0.025,0.633 -0.205,1.033 -0.407,0.908 -0.703,-0.435 -3.326,0.535 -3.27,1.208 0.169,2.071 0.002,2.298 -1.686,2.298 h -1.621 l 0.063,1.664 0.062,1.664 h -1.325 c -1.647,0 -2.213,0.539 -2.213,2.107 0,1.139 -0.082,1.22 -1.249,1.22 -1.7,0 -1.97,0.483 -2.051,3.674 -0.083,3.261 -0.171,3.455 -1.449,3.187 -1.532,-0.321 -1.795,0.13 -1.98,3.398 -0.195,3.443 -0.214,3.483 -1.729,3.559 -0.607,0.031 -1.239,0.205 -1.406,0.387 -0.177,0.194 -0.072,0.2 0.252,0.016 0.488,-0.277 0.49,-0.236 0.016,0.348 -0.417,0.513 -0.555,2.086 -0.615,6.975 l -0.077,6.313 -0.973,0.51 c -0.995,0.521 -1.728,1.819 -1.909,3.376 -0.321,2.778 -0.508,0.323 -0.508,-6.675 v -7.958 l 1.571,-0.332 1.571,-0.332 0.059,-4.803 0.058,-4.804 1.605,-0.185 1.605,-0.185 0.071,-2.772 c 0.039,-1.525 0.081,-2.981 0.093,-3.235 0.012,-0.276 0.532,-0.462 1.285,-0.462 2.039,0 2.433,-0.298 2.433,-1.841 0,-1.337 0.058,-1.401 1.475,-1.628 1.375,-0.22 1.491,-0.334 1.707,-1.685 0.213,-1.333 0.345,-1.469 1.631,-1.687 1.433,-0.242 1.825,-0.808 1.836,-2.657 0.004,-0.689 0.242,-0.828 1.576,-0.925 1.564,-0.113 1.572,-0.121 1.685,-1.684 l 0.114,-1.572 h 1.642 c 1.409,0 1.643,-0.107 1.643,-0.757 0,-1.48 1.792,-2.545 4.304,-2.558 2.45,-0.013 2.72,-0.232 2.72,-2.212 v -1.031 l 6.15,-0.168 c 6.661,-0.183 7.158,-0.349 7.158,-2.402 0,-1.009 10.301,-1.397 10.394,-0.391 m 3.466,24.03 c 0.148,0.457 0.243,1.041 0.212,1.296 -0.083,0.674 1.325,1.097 3.836,1.151 2.212,0.048 2.968,0.48 2.598,1.486 -0.452,1.227 0.201,1.889 1.864,1.889 h 1.617 l 0.114,1.571 c 0.113,1.564 0.121,1.572 1.685,1.685 l 1.571,0.114 0.058,2.104 c 0.031,1.158 0.028,2.456 -0.007,2.886 -0.079,0.98 0.557,1.521 1.982,1.681 l 1.109,0.125 0.11,2.94 c 0.125,3.367 0.419,3.9 2.154,3.9 1.042,0 1.252,0.137 1.268,0.831 0.132,5.657 -0.02,26.228 -0.197,26.513 -0.129,0.209 -0.765,0.338 -1.415,0.288 -0.928,-0.071 -1.169,0.048 -1.129,0.556 0.028,0.356 -0.078,0.647 -0.237,0.647 -0.158,0 -0.319,1.123 -0.358,2.496 -0.038,1.372 -0.084,2.71 -0.102,2.973 -0.022,0.322 -0.354,0.407 -1.021,0.261 -1.414,-0.311 -1.926,0.519 -2.12,3.431 -0.192,2.875 -0.12,2.737 -1.462,2.811 -1.525,0.083 -1.96,0.499 -1.96,1.87 0,1.28 -0.573,1.668 -2.479,1.68 -0.849,0.005 -1.585,2.069 -1.048,2.938 0.16,0.259 -0.405,0.394 -1.649,0.394 -1.04,0 -1.8,0.149 -1.688,0.33 0.113,0.182 -0.207,0.434 -0.711,0.56 -0.503,0.127 -1.171,0.727 -1.485,1.334 -0.549,1.061 -0.674,1.105 -3.242,1.158 -3.714,0.076 -3.859,0.091 -4.208,0.441 -0.171,0.171 -0.328,0.587 -0.349,0.924 -0.119,1.948 -0.077,1.907 -1.995,1.907 -1.769,0 -1.849,-0.043 -1.854,-1.016 -0.011,-1.984 -0.324,-2.116 -5.341,-2.248 l -4.635,-0.123 v -1.409 c 0,-1.524 -0.4,-1.858 -2.227,-1.858 -0.948,0 -1.089,-0.162 -1.369,-1.571 -0.236,-1.187 -0.49,-1.58 -1.039,-1.609 -1.905,-0.099 -1.977,-0.153 -2.285,-1.708 -0.29,-1.468 -0.402,-1.58 -1.87,-1.871 -1.443,-0.285 -1.562,-0.398 -1.567,-1.488 -0.008,-1.775 -0.36,-2.071 -2.325,-1.96 -0.968,0.054 -1.581,-0.012 -1.362,-0.147 0.247,-0.152 0.356,-1.417 0.289,-3.339 l -0.108,-3.094 -1.479,-0.142 c -1.908,-0.183 -1.736,0.468 -1.694,-6.426 0.04,-6.683 -0.068,-7.073 -1.97,-7.115 l -1.325,-0.029 -10e-4,-2.647 c -0.001,-2.544 0.046,-2.685 1.201,-3.61 0.66,-0.53 1.409,-1.133 1.663,-1.342 0.337,-0.275 0.462,-2.077 0.462,-6.627 v -6.249 l 1.572,-0.114 1.571,-0.113 0.106,-3.215 0.107,-3.214 1.557,-0.113 1.557,-0.113 0.113,-1.756 0.112,-1.756 h 1.604 c 1.738,0 2.053,-0.344 2.053,-2.248 0,-1.007 0.095,-1.079 1.435,-1.079 1.508,0 1.874,-0.484 1.887,-2.495 0.004,-0.7 0.206,-0.832 1.273,-0.832 1.473,0 3.672,-1.295 4.239,-2.495 0.39,-0.829 0.427,-0.832 9.229,-0.832 h 8.837 l 0.268,0.832 m 37.706,20.627 c -0.326,1.028 0.426,1.831 1.714,1.831 h 1.064 v 32.71 32.71 l -0.958,0.241 c -0.856,0.214 -2.458,2.816 -2.32,3.765 0.021,0.143 0.019,2.268 -0.005,4.722 l -0.044,4.462 -1.183,0.528 c -0.752,0.337 -1.369,0.992 -1.693,1.8 -0.487,1.213 -0.479,1.247 0.166,0.746 0.649,-0.504 0.651,-0.495 0.03,0.237 -0.38,0.447 -0.647,1.369 -0.647,2.228 0,1.334 -0.108,1.497 -1.202,1.819 -1.376,0.405 -2.07,1.893 -2.105,4.513 l -0.02,1.571 h -1.468 c -1.432,0 -1.48,0.042 -1.98,1.756 -0.467,1.601 -0.613,1.757 -1.657,1.768 -1.454,0.017 -1.643,0.223 -1.754,1.924 -0.083,1.259 -0.183,1.381 -1.051,1.285 -1.259,-0.14 -2.443,0.517 -2.377,1.317 0.147,1.779 -0.062,2.352 -0.773,2.126 -1.573,-0.499 -2.471,0.115 -2.568,1.757 -0.111,1.889 0.314,1.661 -3.361,1.806 l -3.125,0.124 -0.142,1.479 c -0.079,0.813 -0.176,1.513 -0.217,1.554 -0.04,0.042 -1.98,0.105 -4.311,0.141 -4.389,0.067 -5.732,0.389 -5.386,1.291 0.111,0.289 0.041,0.526 -0.156,0.526 -0.197,0 -0.358,0.332 -0.358,0.739 0,0.718 -0.247,0.739 -8.688,0.739 h -8.688 l -0.005,-0.831 c -0.013,-1.916 -1.521,-2.473 -6.741,-2.487 l -3.235,-0.009 v -1.248 c 0,-1.372 -0.632,-2.122 -1.707,-2.025 -0.383,0.035 -1.643,0.037 -2.8,0.005 l -2.105,-0.059 -0.114,-1.561 c -0.11,-1.512 -0.163,-1.571 -1.659,-1.865 -1.3,-0.256 -1.582,-0.474 -1.78,-1.371 -0.287,-1.308 -0.793,-1.754 -2.174,-1.917 -0.843,-0.099 -1.148,-0.392 -1.478,-1.419 -0.321,-0.998 -0.712,-1.389 -1.71,-1.711 -0.784,-0.253 -1.336,-0.69 -1.401,-1.109 -0.337,-2.183 -0.463,-2.401 -1.245,-2.152 -0.519,0.164 -0.69,0.11 -0.521,-0.164 0.154,-0.249 -0.046,-0.409 -0.508,-0.409 -0.578,0 -0.767,-0.245 -0.787,-1.017 -0.031,-1.192 -0.446,-2.377 -0.82,-2.338 -0.145,0.015 -0.839,0.028 -1.543,0.028 h -1.279 l -0.107,-3.235 -0.107,-3.235 -1.571,-0.114 -1.571,-0.113 -0.006,-4.508 c -0.006,-5.119 -0.159,-5.547 -1.995,-5.587 l -1.324,-0.029 -0.042,-1.849 c -0.023,-1.016 -0.034,-2.597 -0.025,-3.512 0.01,-0.915 0.049,-12.061 0.087,-24.769 0.039,-12.708 0.195,-22.248 0.349,-21.201 0.348,2.381 0.51,2.637 1.898,2.997 l 1.124,0.291 0.072,6.575 c 0.077,7.102 0.121,7.255 2.124,7.266 1.094,0.007 1.423,1.092 1.431,4.719 0.003,1.519 0.13,1.941 0.587,1.941 1.416,0 2.698,2.008 2.782,4.359 0.086,2.376 0.335,2.647 2.436,2.66 0.688,0.005 0.828,0.242 0.924,1.576 0.113,1.564 0.122,1.572 1.685,1.685 1.443,0.105 1.776,0.385 1.592,1.342 -0.255,1.323 0.399,2.057 1.835,2.057 0.809,0 1.487,0.124 1.506,0.277 0.019,0.152 0.061,0.859 0.093,1.571 0.056,1.273 0.086,1.296 1.822,1.407 0.971,0.062 1.67,0.267 1.554,0.456 -0.117,0.188 -0.103,0.928 0.032,1.643 l 0.244,1.3 h 3.286 3.286 v 1.657 c 0,2.011 -0.012,2.007 5.915,2.134 l 4.251,0.091 0.185,1.293 c 0.429,3 16.266,2.481 16.266,-0.533 0,-0.884 0.013,-0.887 4.836,-1.008 5.319,-0.134 5.885,-0.382 5.885,-2.581 v -1.023 l 3.039,-0.108 3.039,-0.107 0.306,-1.551 c 0.296,-1.5 0.356,-1.554 1.859,-1.663 1.543,-0.112 1.554,-0.124 1.667,-1.684 l 0.114,-1.571 h 1.642 1.643 v -1.664 c 0,-1.592 0.046,-1.664 1.078,-1.664 1.91,0 2.249,-0.312 2.249,-2.072 0,-1.45 0.091,-1.624 0.853,-1.624 1.744,0 2.837,-2.027 2.841,-5.268 0.002,-1.264 0.092,-1.387 1.019,-1.392 1.949,-0.011 2.079,-0.32 2.245,-5.331 l 0.155,-4.645 h 1.038 c 2.268,0 2.2,0.586 2.2,-19.065 0,-12.443 0.12,-17.904 0.395,-17.904 0.229,0 0.294,0.317 0.154,0.757 m -111.547,48.476 c -0.056,8.606 -0.101,1.673 -0.101,-15.407 0,-17.079 0.045,-24.12 0.101,-15.647 0.055,8.474 0.055,22.448 0,31.054 m 1.296,15.146 c -0.154,0.154 -0.196,-13.645 -0.095,-30.663 l 0.185,-30.943 0.095,30.663 c 0.052,16.865 -0.032,30.789 -0.185,30.943 m 14.958,-47.101 c -0.085,0.562 -0.157,0.19 -0.16,-0.827 -0.002,-1.016 0.067,-1.476 0.155,-1.022 0.088,0.455 0.09,1.287 0.005,1.849 m 79.472,0.744 c -0.093,0.356 -0.169,0.065 -0.169,-0.647 0,-0.711 0.076,-1.002 0.169,-0.647 0.093,0.356 0.093,0.939 0,1.294 M 88.762,123.845 h 4.783 l -0.224,0.89 c -0.585,2.332 -0.212,2.437 8.686,2.437 8.494,0 8.9,0.082 8.291,1.668 -0.588,1.533 0.215,1.659 10.542,1.659 h 9.844 l -0.064,1.202 c -0.035,0.66 -0.077,1.51 -0.092,1.888 -0.019,0.455 -0.217,0.614 -0.587,0.472 -1.604,-0.616 -2.769,0.161 -2.769,1.845 0,1.642 -0.504,1.926 -2.979,1.685 -0.114,-0.012 -0.247,0.671 -0.297,1.516 -0.11,1.854 0.041,1.695 -1.733,1.831 -0.969,0.075 -1.471,0.296 -1.496,0.659 -0.02,0.301 -0.062,1.005 -0.093,1.564 -0.05,0.892 -0.206,1.016 -1.276,1.016 -1.584,0 -2.108,0.567 -2.108,2.281 0,1.086 -0.122,1.346 -0.554,1.18 -0.305,-0.117 -0.846,-0.084 -1.202,0.072 -0.355,0.157 -0.813,0.3 -1.016,0.317 -0.204,0.018 -0.384,0.199 -0.4,0.402 -0.157,1.929 -1.658,3.245 -3.232,2.834 -0.168,-0.044 -0.2,0.091 -0.071,0.299 0.129,0.208 0.058,0.379 -0.159,0.379 -0.216,0 -0.35,0.54 -0.299,1.201 0.081,1.037 -0.032,1.216 -0.83,1.305 -2.436,0.273 -2.588,0.387 -2.588,1.937 v 1.472 h -1.663 -1.664 v 1.663 1.664 l -1.756,0.043 c -0.966,0.023 -2.021,0.017 -2.344,-0.014 -1.435,-0.136 -2.507,0.646 -2.474,1.806 0.04,1.39 0.035,1.394 -1.559,1.55 -1.544,0.152 -2.344,0.808 -2.067,1.697 0.327,1.051 -0.341,1.664 -1.866,1.712 -1.438,0.046 -2.434,2.451 -1.304,3.15 0.198,0.122 -0.539,0.225 -1.638,0.228 l -1.998,0.005 -0.008,-4.811 c -0.016,-8.376 -0.086,-8.482 -5.703,-8.585 l -4.198,-0.078 -0.236,0.941 c -0.129,0.517 -0.145,1.227 -0.034,1.577 0.16,0.503 -0.126,0.709 -1.371,0.985 -1.91,0.423 -1.78,-0.33 -1.933,11.183 -0.127,9.494 -0.033,8.978 -1.637,9.024 -1.68,0.047 -1.792,0.39 -1.791,5.465 l 0.001,4.621 -1.535,0.114 c -0.844,0.063 -1.438,0.271 -1.319,0.462 0.118,0.192 0.059,0.348 -0.132,0.348 -0.191,0 -0.375,1.621 -0.408,3.602 -0.065,3.84 -0.922,5.64 -2.685,5.64 -0.6,0 -0.67,0.367 -0.67,3.503 v 3.503 l -1.065,-0.213 c -0.611,-0.122 -1.172,-0.037 -1.319,0.2 -0.14,0.227 -0.414,0.315 -0.609,0.195 -0.194,-0.12 -0.318,-0.081 -0.276,0.086 0.043,0.168 -0.054,2.501 -0.215,5.186 l -0.294,4.881 -0.997,-0.199 c -0.618,-0.124 -1.161,-0.002 -1.429,0.32 -0.597,0.72 -1.023,7.677 -0.47,7.677 0.304,0 0.301,0.212 -0.01,0.793 -0.237,0.445 -0.347,1.597 -0.249,2.619 0.188,1.953 0.066,2.109 -1.756,2.249 -1.267,0.097 -1.363,0.432 -1.453,5.06 -0.121,6.209 0.331,7.744 2.286,7.758 0.457,0.003 0.832,0.182 0.832,0.397 0,0.215 0.183,0.278 0.406,0.14 0.293,-0.181 0.297,-0.046 0.015,0.481 -0.322,0.602 -0.356,2.587 -0.093,5.549 0.025,0.284 0.599,0.462 1.488,0.462 h 1.448 l 0.247,2.681 c 0.135,1.474 0.297,3.595 0.358,4.713 0.062,1.118 0.131,2.144 0.155,2.278 0.023,0.135 0.708,0.357 1.521,0.495 l 1.479,0.25 v 4.76 c 0,4.356 0.061,4.793 0.727,5.15 2.783,1.489 3.601,4.859 0.931,3.835 -1.094,-0.42 -1.526,0.512 -1.602,3.454 -0.082,3.154 -0.27,3.53 -1.793,3.585 -0.745,0.027 -1.022,0.219 -0.985,0.681 0.028,0.356 -0.12,0.538 -0.331,0.407 -0.24,-0.148 -0.315,0.115 -0.202,0.704 0.224,1.171 -2.814,1.519 -10.609,1.217 -2.643,-0.102 -5.263,-0.189 -5.822,-0.192 -0.804,-0.005 -1.018,-0.18 -1.022,-0.838 -0.009,-1.301 -0.542,-1.842 -2.059,-2.088 -1.189,-0.193 -1.448,-0.407 -1.707,-1.405 -0.229,-0.884 -0.624,-1.292 -1.585,-1.639 l -1.279,-0.463 -0.102,-12.221 c -0.056,-6.722 -0.056,-14.426 0.001,-17.12 l 0.103,-4.898 h 0.938 c 2.541,0 2.403,0.975 2.364,-16.75 -0.02,-8.782 -0.027,-18.587 -0.016,-21.79 l 0.02,-5.822 h 1.281 c 2.091,0 2.199,-0.504 2.353,-10.998 l 0.137,-9.335 h 1.027 c 1.629,0 1.908,-0.719 2.127,-5.479 l 0.203,-4.397 1.329,-0.33 c 1.501,-0.373 1.832,-1.329 1.873,-5.413 0.016,-1.577 0.156,-2.126 0.545,-2.126 1.038,0 2.803,-2.768 2.803,-4.397 0,-1.242 0.127,-1.518 0.699,-1.518 1.582,0 2.336,-1.182 2.536,-3.976 l 0.189,-2.64 1.523,-0.112 1.523,-0.111 0.113,-1.756 c 0.099,-1.542 0.214,-1.756 0.946,-1.756 1.679,0 2.815,-2.039 2.821,-5.062 10e-4,-1.124 0.077,-1.186 1.573,-1.294 1.563,-0.113 1.571,-0.121 1.685,-1.685 0.108,-1.502 0.166,-1.571 1.312,-1.571 1.565,0 2.086,-0.573 2.086,-2.292 v -1.405 h 1.664 1.663 v -1.663 -1.664 h 1.664 1.663 v -1.664 -1.663 h 1.664 1.663 v -1.643 -1.644 l 1.756,-0.136 c 0.966,-0.074 1.978,-0.083 2.249,-0.02 0.271,0.064 2.644,0.116 5.275,0.116 m 69.14,4.436 c 0.025,0.61 0.067,1.317 0.092,1.571 0.033,0.322 1.028,0.495 3.281,0.569 l 3.235,0.107 v 1.649 1.649 h 1.664 1.663 v 1.624 c 0,1.78 0.332,2.073 2.348,2.073 1.108,0 1.174,0.075 1.117,1.281 -0.071,1.506 0.347,1.942 2.025,2.108 1.229,0.122 1.236,0.135 1.371,2.293 0.172,2.738 0.903,3.93 2.412,3.93 0.617,0 1.026,0.156 0.908,0.347 -0.829,1.341 0.276,3.35 1.842,3.35 h 1.578 l 0.132,4.466 c 0.142,4.831 0.443,5.515 2.419,5.515 0.834,0 0.855,0.086 0.884,3.79 0.05,6.378 0.108,6.544 2.28,6.556 l 1.017,0.006 v 11.429 c 0,12.792 0.25,14.347 2.424,15.072 l 1.007,0.335 0.041,19.123 0.04,19.123 -1.032,-0.226 c -1.17,-0.257 -2.169,0.364 -1.864,1.159 0.111,0.291 0.028,0.528 -0.185,0.528 -0.258,0 -0.397,3.038 -0.418,9.134 -0.033,9.509 -0.109,9.961 -1.602,9.496 -1.204,-0.375 -1.605,0.443 -1.682,3.428 -0.084,3.261 -0.057,3.204 -1.535,3.204 -0.61,0 -1.109,0.148 -1.109,0.33 0,0.181 -0.177,0.22 -0.394,0.086 -0.217,-0.134 -0.364,-0.019 -0.326,0.255 0.274,1.998 -0.002,2.486 -1.58,2.798 -1.439,0.284 -1.565,0.404 -1.622,1.533 -0.077,1.528 -0.396,1.851 -2.006,2.028 -0.704,0.077 -1.299,0.287 -1.322,0.467 -0.284,2.283 -0.594,2.692 -2.127,2.804 -1.229,0.09 -1.536,0.256 -1.566,0.851 -0.129,2.52 -0.04,2.403 -1.811,2.403 -1.404,0 -1.664,0.113 -1.664,0.723 0,1.342 -1.699,2.593 -3.618,2.663 -1.072,0.039 -1.931,0.289 -2.232,0.65 -0.385,0.461 -0.432,0.467 -0.218,0.03 0.16,-0.326 0.134,-0.426 -0.065,-0.243 -0.185,0.171 -0.353,0.586 -0.374,0.924 -0.132,2.151 -0.086,2.093 -1.629,2.063 -1.441,-0.028 -2.773,1.969 -2.071,3.105 0.097,0.158 -0.561,0.253 -1.462,0.212 -0.902,-0.042 -1.639,0.085 -1.639,0.281 0,0.196 -0.153,0.262 -0.339,0.147 -0.728,-0.449 -2.3,0.567 -2.827,1.827 -0.435,1.042 -0.743,1.296 -1.571,1.296 -0.567,0 -1.254,0.208 -1.528,0.462 -0.403,0.374 -0.442,0.363 -0.202,-0.057 0.201,-0.352 0.156,-0.432 -0.14,-0.249 -0.241,0.148 -0.413,0.465 -0.383,0.704 0.26,2.109 0.013,2.467 -1.698,2.467 h -1.664 v 1.664 1.664 l -2.31,0.005 c -2.938,0.006 -4.078,0.301 -3.815,0.987 0.118,0.305 0.041,0.425 -0.183,0.287 -0.24,-0.148 -0.343,0.157 -0.273,0.813 0.104,0.976 0.011,1.058 -1.326,1.168 -1.827,0.149 -2.416,0.748 -2.291,2.324 l 0.099,1.255 -1.882,0.026 c -2.474,0.034 -4.004,0.797 -4.47,2.227 -0.203,0.625 -0.562,1.072 -0.797,0.993 -0.774,-0.258 -2.896,0.486 -2.934,1.028 -0.021,0.293 -0.063,0.98 -0.094,1.527 -0.051,0.896 -0.213,1.007 -1.627,1.109 -1.564,0.113 -1.572,0.122 -1.685,1.685 l -0.114,1.571 -2.659,0.057 c -1.462,0.03 -2.89,0.073 -3.172,0.094 -0.62,0.046 -1.257,1.62 -1.021,2.524 0.146,0.559 -0.093,0.652 -1.665,0.652 -1.009,0 -1.744,0.147 -1.633,0.327 0.111,0.18 -0.254,0.516 -0.81,0.747 -0.557,0.231 -1.278,0.886 -1.603,1.454 -0.513,0.897 -0.793,1.023 -2.126,0.955 -0.844,-0.043 -1.535,0.08 -1.535,0.275 0,0.194 -0.177,0.243 -0.394,0.109 -0.217,-0.134 -0.364,-0.019 -0.326,0.255 0.038,0.275 0.048,0.999 0.023,1.609 l -0.046,1.109 -2.818,0.086 c -3.156,0.097 -3.832,0.449 -3.832,1.992 0,1.047 -0.312,1.241 -1.849,1.146 -1.703,-0.104 -4.056,1.13 -4.501,2.36 -0.45,1.245 -1.745,1.627 -4.316,1.274 -0.274,-0.038 -0.404,0.085 -0.288,0.272 0.116,0.188 -0.169,0.269 -0.633,0.18 -1.03,-0.197 -1.882,0.724 -1.615,1.745 0.106,0.408 0.06,0.741 -0.104,0.741 -0.163,0 -0.355,-2.065 -0.427,-4.59 -0.146,-5.145 -0.165,-5.19 -2.186,-5.19 h -1.457 l -0.027,-2.041 c -0.015,-1.123 -0.056,-4.113 -0.092,-6.644 l -0.065,-4.602 -1.479,-0.145 c -1.881,-0.183 -1.73,0.125 -1.794,-3.658 l -0.055,-3.259 h -1.571 -1.571 v -3.398 -3.399 l 1.571,-0.113 1.571,-0.114 0.113,-1.756 c 0.107,-1.662 0.17,-1.756 1.175,-1.756 2.294,0 2.228,0.549 2.21,-18.423 -0.016,-16.547 -0.135,-18.584 -1.053,-18.017 -0.226,0.14 -0.411,0.059 -0.411,-0.18 0,-0.265 -0.363,-0.366 -0.925,-0.258 l -0.924,0.176 v -3.435 c 0,-3.268 -0.04,-3.442 -0.832,-3.595 -0.457,-0.088 0.375,-0.183 1.849,-0.21 2.626,-0.05 2.68,-0.032 2.68,0.873 0,1.974 1.041,2.403 5.823,2.403 h 4.343 l -0.029,1.5 c -0.037,1.921 0.475,2.197 4.072,2.197 h 2.797 v 1.064 c 0,1.672 0.694,1.944 5.532,2.167 4.686,0.216 4.827,0.283 4.467,2.116 -0.189,0.96 1.35,1.308 5.783,1.308 h 4.55 v 1.272 c 0,0.699 0.192,1.39 0.427,1.536 0.281,0.173 0.335,0.085 0.158,-0.256 -0.149,-0.285 -0.025,-0.22 0.274,0.146 0.478,0.585 1.156,0.66 5.665,0.628 2.817,-0.02 5.545,-0.028 6.062,-0.018 0.735,0.015 1.017,0.281 1.294,1.22 0.579,1.968 1.758,2.152 13.062,2.039 l 9.842,-0.098 0.101,-6.565 c 0.056,-3.61 -0.028,-6.543 -0.185,-6.518 -0.157,0.026 -3.987,0.027 -8.511,0.003 l -8.226,-0.044 -0.005,-1.201 c -0.007,-1.432 -0.361,-2.084 -1.109,-2.041 -0.302,0.017 -2.504,0.005 -4.893,-0.027 l -4.344,-0.058 v -1.083 c 0,-0.595 -0.261,-1.344 -0.581,-1.663 -0.61,-0.611 -1.014,-0.661 -6.073,-0.756 l -3.142,-0.06 -0.116,-1.379 c -0.135,-1.602 -0.866,-2.03 -3.432,-2.008 -3.606,0.031 -3.661,0.014 -3.661,-1.139 0,-1.193 -0.729,-1.982 -1.734,-1.878 -0.368,0.038 -0.752,0.032 -0.854,-0.015 -0.102,-0.046 -1.332,-0.142 -2.735,-0.214 -2.77,-0.14 -4.016,-0.867 -4.45,-2.594 -0.215,-0.857 -0.345,-0.889 -3.543,-0.889 h -3.32 v -1.439 c 0,-1.754 -0.278,-1.888 -3.912,-1.888 h -2.743 v -1.472 c 0,-1.227 -0.138,-1.501 -0.831,-1.649 -0.458,-0.098 -1.165,-0.248 -1.571,-0.334 -0.407,-0.086 0.544,-0.176 2.112,-0.199 3.1,-0.047 3.618,-0.394 3.618,-2.422 v -0.949 h 4.409 c 4.894,0 5.572,-0.273 5.572,-2.244 v -1.083 h 3.288 c 3.574,0 3.736,-0.097 3.736,-2.248 v -1.079 h 2.932 c 3.18,0 5.019,-0.768 5.975,-2.495 0.365,-0.66 0.785,-0.832 2.031,-0.832 1.975,0 2.741,-0.289 2.741,-1.032 0,-1.357 1.507,-2.295 3.687,-2.295 2.45,0 2.967,-0.4 2.967,-2.292 0,-1.386 0.019,-1.405 1.439,-1.405 1.724,0 1.888,-0.307 1.888,-3.52 0,-2.551 -0.247,-2.914 -2.002,-2.936 -0.967,-0.012 -1.118,-0.183 -1.478,-1.677 l -0.402,-1.664 -2.68,-0.064 c -1.55,-0.036 -2.68,0.09 -2.68,0.3 0,0.199 -0.14,0.276 -0.31,0.171 -0.171,-0.106 -0.333,0.407 -0.361,1.139 -0.067,1.782 0.117,1.713 -4.5,1.692 -2.31,-0.011 -4.071,0.131 -4.071,0.329 0,0.191 -0.291,0.299 -0.647,0.239 -0.441,-0.074 -0.612,0.098 -0.538,0.538 0.059,0.356 -0.066,0.647 -0.278,0.647 -0.212,0 -0.386,0.375 -0.386,0.834 0,0.819 -0.072,0.833 -3.967,0.753 -3.083,-0.064 -4.163,0.047 -4.851,0.498 -0.546,0.358 -0.774,0.401 -0.597,0.114 0.171,-0.276 0.137,-0.372 -0.083,-0.236 -0.203,0.126 -0.385,0.751 -0.403,1.389 -0.018,0.638 -0.095,1.223 -0.171,1.299 -0.116,0.115 -10.439,0.586 -12.579,0.573 -0.36,-0.002 -0.558,0.153 -0.44,0.344 0.118,0.191 0.031,0.347 -0.193,0.347 -0.224,0 -0.381,0.208 -0.348,0.462 0.033,0.254 0.041,0.878 0.017,1.386 l -0.043,0.925 -3.975,-0.135 c -2.186,-0.075 -3.767,-0.213 -3.513,-0.309 0.323,-0.12 0.462,-1.17 0.462,-3.469 v -3.296 h 1.466 c 1.88,0 2.231,-0.638 2.231,-4.042 v -2.613 h 1.22 c 0.671,0 1.42,-0.199 1.664,-0.443 0.345,-0.345 0.443,0.394 0.443,3.327 v 3.771 h 6.84 6.839 v -1.643 -1.642 l 1.571,-0.114 c 1.56,-0.112 1.572,-0.124 1.684,-1.664 0.111,-1.536 0.127,-1.552 1.663,-1.664 1.537,-0.111 1.552,-0.127 1.664,-1.663 0.112,-1.537 0.127,-1.552 1.664,-1.664 1.539,-0.112 1.551,-0.124 1.664,-1.684 l 0.114,-1.571 h 1.62 c 0.892,0 1.724,-0.166 1.849,-0.37 0.126,-0.203 0.54,-0.369 0.92,-0.369 0.955,0 1.853,-0.988 1.853,-2.04 0,-0.784 0.186,-0.889 1.756,-0.99 1.738,-0.111 1.759,-0.128 2.082,-1.665 0.313,-1.492 0.384,-1.556 1.848,-1.663 1.507,-0.111 1.524,-0.128 1.637,-1.683 l 0.113,-1.571 h 2.725 c 3.08,0 3.887,-0.466 3.887,-2.245 0,-1.017 0.09,-1.082 1.484,-1.082 0.816,0 1.772,-0.155 2.126,-0.343 0.353,-0.188 0.947,-0.438 1.321,-0.555 0.374,-0.117 0.867,-0.712 1.098,-1.321 0.37,-0.982 0.59,-1.108 1.926,-1.108 1.875,0 2.396,-0.499 2.396,-2.293 0,-1.099 0.143,-1.404 0.657,-1.404 1.533,0 2.301,-1.047 2.301,-3.137 0,-2.21 -0.607,-3.148 -2.037,-3.148 -0.754,0 -0.91,-0.231 -1.124,-1.66 -0.137,-0.913 -0.397,-1.568 -0.578,-1.457 -0.18,0.112 -0.328,0.055 -0.328,-0.127 0,-1.501 -7.945,0.332 -8.345,1.926 -0.159,0.633 -0.501,0.959 -1.029,0.979 -0.671,0.027 -3.113,0.181 -5.476,0.346 -0.734,0.052 -1.145,0.948 -0.855,1.862 0.283,0.89 -0.052,1.034 -3.006,1.291 -2.793,0.242 -3.734,0.803 -3.911,2.331 -0.113,0.978 -4.455,1.914 -4.975,1.073 -0.095,-0.154 0.719,-0.279 1.808,-0.279 2.297,0 2.869,-0.42 2.869,-2.108 0,-1.195 0.033,-1.219 1.624,-1.219 1.756,0 2.073,-0.341 2.073,-2.228 0,-0.979 0.115,-1.065 1.571,-1.171 1.56,-0.113 1.572,-0.125 1.684,-1.664 0.111,-1.537 0.127,-1.552 1.663,-1.664 1.536,-0.112 1.552,-0.127 1.664,-1.664 0.111,-1.536 0.127,-1.552 1.663,-1.663 1.537,-0.112 1.552,-0.127 1.664,-1.664 0.112,-1.536 0.127,-1.552 1.664,-1.663 l 1.55,-0.113 0.113,-1.756 0.113,-1.756 h 1.643 1.643 v -1.664 -1.663 h 1.466 c 1.606,0 2.231,-0.667 2.231,-2.379 0,-0.712 0.191,-0.948 0.764,-0.948 1.581,0 2.085,-0.623 2.342,-2.892 0.259,-2.287 1.128,-3.553 2.624,-3.821 0.58,-0.104 0.764,-0.473 0.853,-1.701 0.102,-1.397 0.215,-1.568 1.041,-1.568 1.875,0 2.357,-0.585 2.369,-2.878 0.013,-2.349 1.123,-4.146 2.559,-4.146 0.651,0 0.757,-0.233 0.757,-1.664 v -1.663 h 1.848 c 1.797,0 1.85,0.031 1.895,1.109 m 189.919,40.665 c 0.163,0 0.284,0.373 0.268,0.829 -0.024,0.659 0.254,0.9 1.356,1.175 1.407,0.35 1.527,0.566 1.398,2.525 -0.055,0.831 0.09,1.021 0.793,1.04 l 0.859,0.024 -0.809,0.326 c -0.791,0.318 -0.808,0.463 -0.739,6.459 0.076,6.702 0.119,6.83 2.288,6.84 l 1.109,0.006 0.017,3.604 c 0.009,1.983 0.032,3.938 0.052,4.344 0.045,0.954 0.035,54.785 -0.011,56.008 -0.019,0.508 -0.04,2.38 -0.047,4.159 -0.006,1.779 -0.146,3.235 -0.31,3.235 -0.165,0 -0.186,0.184 -0.046,0.409 0.174,0.282 -0.087,0.334 -0.844,0.168 -1.353,-0.297 -2.139,0.483 -1.809,1.798 0.126,0.498 0.085,0.995 -0.09,1.102 -0.174,0.108 -0.327,4.402 -0.34,9.542 -0.012,5.141 -0.036,9.739 -0.053,10.218 -0.027,0.743 -0.169,0.838 -0.963,0.638 -1.049,-0.263 -2.448,0.332 -2.363,1.005 0.03,0.244 0.036,2.398 0.011,4.787 l -0.043,4.343 h -1.592 -1.591 l -0.092,1.561 c -0.111,1.883 0.061,1.708 -1.783,1.817 l -1.523,0.09 0.056,1.686 0.055,1.686 -5.822,-0.11 c -3.841,-0.073 -5.823,0.02 -5.823,0.273 0,0.21 -0.374,0.343 -0.832,0.294 -0.669,-0.07 -0.814,0.079 -0.74,0.766 0.061,0.561 -0.052,0.764 -0.331,0.592 -0.286,-0.178 -0.368,0.024 -0.253,0.625 l 0.17,0.887 -11.821,-0.091 c -6.502,-0.05 -11.897,-0.166 -11.989,-0.259 -0.092,-0.092 -0.287,-0.716 -0.433,-1.387 -0.146,-0.672 -0.46,-1.179 -0.697,-1.128 -0.237,0.051 -0.431,-0.074 -0.431,-0.277 0,-0.239 -4.041,-0.37 -11.384,-0.37 h -11.383 l -0.354,-1.171 c -0.516,-1.711 -1.993,-2.074 -8.688,-2.137 -6.091,-0.058 -6.833,-0.308 -7.543,-2.545 -0.193,-0.61 -0.64,-0.711 -3.424,-0.772 -3.653,-0.08 -3.804,-0.132 -3.804,-1.3 0,-1.131 -0.863,-1.808 -1.923,-1.508 -0.661,0.186 -0.727,0.153 -0.295,-0.149 0.559,-0.392 -0.825,-0.601 -3.399,-0.514 -0.815,0.028 -1.04,-0.165 -1.237,-1.063 -0.288,-1.31 -2.608,-2.485 -4.71,-2.387 -1.28,0.061 -1.324,0.018 -1.554,-1.514 -0.242,-1.613 -0.325,-1.678 -2.206,-1.73 -0.911,-0.026 -1.13,-0.218 -1.327,-1.172 -0.322,-1.554 -0.702,-2.089 -1.316,-1.853 -0.285,0.109 -0.517,0.037 -0.517,-0.16 0,-0.197 -0.304,-0.358 -0.675,-0.358 -0.471,0 -0.777,-0.416 -1.016,-1.386 -0.295,-1.194 -0.535,-1.434 -1.729,-1.729 -1.249,-0.309 -1.386,-0.462 -1.386,-1.549 0,-1.128 -0.421,-1.723 -1.294,-1.832 -0.204,-0.025 -0.744,-0.071 -1.202,-0.102 -0.727,-0.049 -0.832,-0.259 -0.832,-1.68 0,-1.738 -0.938,-2.412 -2.619,-1.878 -0.645,0.205 -0.708,0.022 -0.708,-2.064 0,-1.952 0.079,-2.223 0.534,-1.845 0.349,0.29 1.608,0.401 3.653,0.322 l 3.121,-0.12 -0.328,0.857 c -0.823,2.16 -0.187,2.655 3.412,2.655 h 3.287 l 0.042,1.017 c 0.024,0.559 0.065,1.264 0.093,1.566 0.062,0.685 1.532,1.014 4.785,1.07 1.665,0.029 2.435,0.176 2.276,0.434 -1.127,1.823 1.48,2.937 6.87,2.937 h 2.939 v 1.303 c 0,1.92 0.848,2.114 8.587,1.96 8.118,-0.16 7.889,-0.022 7.806,-4.716 -0.069,-3.94 -0.502,-4.995 -1.913,-4.668 -0.737,0.171 -0.846,0.134 -0.432,-0.147 0.438,-0.296 0.321,-0.385 -0.554,-0.423 -0.61,-0.027 -1.276,-0.087 -1.479,-0.135 -0.203,-0.047 -0.723,-0.111 -1.154,-0.142 -0.615,-0.044 -0.836,-0.375 -1.021,-1.535 -0.13,-0.813 -0.443,-1.499 -0.694,-1.525 -2.173,-0.22 -5.339,-0.176 -5.658,0.079 -0.265,0.211 -0.423,-0.253 -0.483,-1.421 -0.115,-2.216 0.04,-2.12 -3.498,-2.142 l -3.019,-0.018 -0.12,-1.456 c -0.066,-0.8 -0.315,-1.58 -0.554,-1.732 -0.239,-0.152 0.48,-0.288 1.598,-0.303 4.716,-0.061 5.594,-1.069 5.455,-6.265 -0.086,-3.187 -0.162,-3.518 -0.833,-3.619 -2.333,-0.35 -2.403,-0.407 -2.403,-1.938 0,-0.908 -0.177,-1.488 -0.463,-1.514 -0.254,-0.023 -0.628,-0.081 -0.831,-0.128 -0.204,-0.048 -0.744,-0.112 -1.202,-0.143 -0.67,-0.045 -0.832,-0.277 -0.832,-1.191 0,-1.491 -0.647,-2.082 -2.224,-2.03 -1.208,0.04 -1.294,-0.035 -1.383,-1.209 -0.119,-1.562 -0.39,-2.016 -1.051,-1.763 -0.285,0.11 -0.517,0.038 -0.517,-0.159 0,-0.197 -1.082,-0.358 -2.403,-0.358 h -2.403 v -1.439 c 0,-1.591 -0.38,-1.888 -2.412,-1.888 -1.193,0 -1.247,-0.062 -1.356,-1.538 -0.129,-1.741 -0.109,-1.732 -4.088,-1.881 l -2.495,-0.093 v -1.571 c 0,-0.865 -0.125,-1.586 -0.278,-1.604 -0.152,-0.018 -1.269,-0.106 -2.481,-0.194 -2.335,-0.171 -3.896,-1.127 -3.896,-2.387 0,-0.876 -0.463,-0.983 -4.066,-0.938 l -3.143,0.039 0.078,-6.654 c 0.043,-3.66 0.085,-7.507 0.093,-8.548 l 0.014,-1.894 1.439,-0.23 c 1.954,-0.312 1.981,-0.426 2.173,-9.199 l 0.169,-7.671 h 0.993 c 1.282,0 1.868,-0.61 1.933,-2.015 0.045,-0.975 0.083,-0.928 0.277,0.352 0.219,1.436 0.273,1.484 1.889,1.663 l 1.663,0.185 v 1.659 c 0,1.367 0.13,1.682 0.74,1.793 0.835,0.151 2.403,1.478 2.403,2.034 0,1.91 2.756,4.68 4.657,4.68 0.582,0 2.367,2.113 2.367,2.801 0,0.378 0.471,0.527 1.663,0.527 1.63,0 1.664,0.024 1.67,1.201 0.008,1.73 0.361,2.072 2.239,2.17 1.581,0.081 1.666,0.141 1.531,1.059 -0.235,1.602 0.977,2.135 5.004,2.199 1.387,0.022 1.571,0.125 1.571,0.879 0,2.031 2.014,2.837 7.096,2.841 3.134,0.002 3.227,0.027 3.697,1.008 1.009,2.104 2.325,2.279 17.372,2.301 15.076,0.022 15.458,-0.027 15.458,-2.004 v -1.303 h 4.793 c 5.308,0 5.558,-0.116 5.558,-2.564 v -1.133 h 3.327 3.328 v -1.649 -1.649 l 3.234,-0.107 3.235,-0.107 0.348,-1.571 c 0.333,-1.503 0.408,-1.571 1.717,-1.571 1.48,0 1.817,-0.413 1.817,-2.227 0,-0.98 0.115,-1.066 1.571,-1.172 1.56,-0.113 1.572,-0.124 1.684,-1.664 0.111,-1.537 0.127,-1.552 1.663,-1.664 1.54,-0.112 1.552,-0.124 1.665,-1.684 0.109,-1.502 0.166,-1.571 1.312,-1.571 1.565,0 2.086,-0.573 2.086,-2.292 0,-1.307 0.076,-1.405 1.083,-1.405 1.782,0 2.244,-0.806 2.244,-3.908 v -2.746 l 1.202,-0.006 c 2.059,-0.009 2.297,-0.387 2.441,-3.862 0.121,-2.939 0.185,-3.157 0.924,-3.162 2.089,-0.015 2.419,-1.422 2.441,-10.415 l 0.016,-6.54 1.387,-0.115 c 1.274,-0.105 1.401,-0.219 1.571,-1.408 0.102,-0.712 0.231,1.159 0.287,4.159 0.056,2.999 0.236,5.452 0.399,5.452 m 21.76,45.749 c -0.085,0.559 -0.154,0.102 -0.154,-1.017 0,-1.118 0.069,-1.575 0.154,-1.016 0.085,0.559 0.085,1.474 0,2.033 m 0.739,0 c -0.084,0.559 -0.154,0.102 -0.154,-1.017 0,-1.118 0.07,-1.575 0.154,-1.016 0.085,0.559 0.085,1.474 0,2.033 M 89.599,237.419 c -0.318,0.514 -0.855,-0.072 -0.622,-0.678 0.172,-0.448 0.284,-0.47 0.514,-0.098 0.162,0.261 0.21,0.611 0.108,0.776 m 132.641,5.742 c 0.032,0.356 0.033,0.943 0.002,1.306 -0.031,0.363 0.192,0.755 0.496,0.871 1.097,0.422 0.516,0.737 -1.175,0.637 -2.015,-0.118 -2.644,0.442 -2.759,2.454 -0.049,0.85 -0.148,0.533 -0.289,-0.924 -0.119,-1.22 -0.156,-2.842 -0.084,-3.605 l 0.131,-1.386 h 1.81 c 1.454,0 1.821,0.127 1.868,0.647 m -148.95,5.092 c 0.098,0.513 0.034,1.022 -0.142,1.131 -0.176,0.109 -0.32,-0.311 -0.32,-0.933 0,-1.373 0.219,-1.467 0.462,-0.198 m 169.218,4.889 c -0.004,0.431 -0.098,0.501 -0.283,0.211 -0.153,-0.241 -1.024,-0.503 -1.935,-0.583 l -1.658,-0.145 1.941,-0.065 c 1.628,-0.054 1.94,0.04 1.935,0.582 M 20.861,256.52 c 0.112,0.18 -0.031,0.522 -0.318,0.76 -0.471,0.391 -0.555,0.039 -0.239,-0.995 0.062,-0.203 0.366,-0.075 0.557,0.235"
       id="path0" />
  </g>
</svg>
